<svg xmlns="http://www.w3.org/2000/svg">
  <symbol id="icon-dashboard" viewBox="0 0 24 24">
    <path d="M4 13.2C4 8.7 7.6 5 12 5s8 3.7 8 8.2V18a1 1 0 0 1-1 1h-4.2a1 1 0 0 1-1-1v-3.2h-3.6V18a1 1 0 0 1-1 1H5a1 1 0 0 1-1-1v-4.8Z" fill="currentColor"/>
  </symbol>
  <symbol id="icon-pulse" viewBox="0 0 24 24">
    <path d="M3 12h4l2-5 4 10 2.2-5H21" fill="none" stroke="currentColor" stroke-width="2.2" stroke-linecap="round" stroke-linejoin="round"/>
  </symbol>
  <symbol id="icon-check" viewBox="0 0 24 24">
    <path d="m6 12.4 3.7 3.7L18.5 7" fill="none" stroke="currentColor" stroke-width="2.4" stroke-linecap="round" stroke-linejoin="round"/>
  </symbol>
  <symbol id="icon-x" viewBox="0 0 24 24">
    <path d="m7.2 7.2 9.6 9.6M16.8 7.2l-9.6 9.6" fill="none" stroke="currentColor" stroke-width="2.4" stroke-linecap="round"/>
  </symbol>
  <symbol id="icon-dollar" viewBox="0 0 24 24">
    <path d="M12 4v16M16.5 8.5c-.7-1-2.2-1.7-4.1-1.7-2.1 0-3.7 1-3.7 2.6 0 1.7 1.8 2.3 3.7 2.8 2 .5 4.1 1.1 4.1 3.1 0 1.7-1.6 2.9-4.1 2.9-2 0-3.7-.7-4.8-2" fill="none" stroke="currentColor" stroke-width="2" stroke-linecap="round"/>
  </symbol>
  <symbol id="icon-stack" viewBox="0 0 24 24">
    <path d="m12 4 8 4-8 4-8-4 8-4Zm-6 8 6 3 6-3M6 16l6 3 6-3" fill="none" stroke="currentColor" stroke-width="2.1" stroke-linecap="round" stroke-linejoin="round"/>
  </symbol>
  <symbol id="icon-arrow-down" viewBox="0 0 24 24">
    <path d="M12 5v14m0 0 6-6m-6 6-6-6" fill="none" stroke="currentColor" stroke-width="2.3" stroke-linecap="round" stroke-linejoin="round"/>
  </symbol>
  <symbol id="icon-arrow-up" viewBox="0 0 24 24">
    <path d="M12 19V5m0 0 6 6m-6-6-6 6" fill="none" stroke="currentColor" stroke-width="2.3" stroke-linecap="round" stroke-linejoin="round"/>
  </symbol>
  <symbol id="icon-bolt" viewBox="0 0 24 24">
    <path d="M13 3 5.6 13h5.7L10.7 21 18.4 10h-5.8L13 3Z" fill="currentColor"/>
  </symbol>
  <symbol id="icon-search" viewBox="0 0 24 24">
    <path d="m16.5 16.5 3.5 3.5M10.8 18a7.2 7.2 0 1 1 0-14.4 7.2 7.2 0 0 1 0 14.4Z" fill="none" stroke="currentColor" stroke-width="2.1" stroke-linecap="round"/>
  </symbol>
  <symbol id="icon-check-circle" viewBox="0 0 24 24">
    <circle cx="12" cy="12" r="8.5" fill="none" stroke="currentColor" stroke-width="2"/>
    <path d="m8.4 12.2 2.5 2.5 4.7-5.2" fill="none" stroke="currentColor" stroke-width="2.2" stroke-linecap="round" stroke-linejoin="round"/>
  </symbol>
  <symbol id="icon-x-circle" viewBox="0 0 24 24">
    <circle cx="12" cy="12" r="8.5" fill="none" stroke="currentColor" stroke-width="2"/>
    <path d="m9.4 9.4 5.2 5.2m0-5.2-5.2 5.2" fill="none" stroke="currentColor" stroke-width="2.2" stroke-linecap="round"/>
  </symbol>
</svg>
