<svg xmlns="http://www.w3.org/2000/svg">
  <symbol id="home" viewBox="0 0 24 24"><path d="m3 11 9-8 9 8"/><path d="M5 10v10h14V10"/><path d="M9 20v-6h6v6"/></symbol>
  <symbol id="quota" viewBox="0 0 24 24"><rect x="4" y="3" width="16" height="18" rx="2"/><path d="M8 7h8M8 11h8M8 15h5"/></symbol>
  <symbol id="provider" viewBox="0 0 24 24"><path d="M8 3v4M16 3v4M5 7h14v3a7 7 0 0 1-14 0V7Z"/><path d="M12 17v4"/></symbol>
  <symbol id="shield" viewBox="0 0 24 24"><path d="M12 3 4.5 6v5.4c0 4.4 3 7.8 7.5 9.6 4.5-1.8 7.5-5.2 7.5-9.6V6L12 3Z"/><path d="m9 12 2 2 4-5"/></symbol>
  <symbol id="bot" viewBox="0 0 24 24"><rect x="4" y="7" width="16" height="13" rx="3"/><path d="M9 12h.01M15 12h.01M8 16h8M12 3v4"/></symbol>
  <symbol id="key" viewBox="0 0 24 24"><circle cx="8" cy="15" r="4"/><path d="m11 12 8-8M16 7l2 2M14 9l2 2"/></symbol>
  <symbol id="log" viewBox="0 0 24 24"><rect x="4" y="4" width="16" height="16" rx="3"/><path d="M8 9h8M8 13h8M8 17h5"/></symbol>
  <symbol id="settings" viewBox="0 0 24 24"><circle cx="12" cy="12" r="3"/><path d="M19 12a7 7 0 0 0-.1-1l2-1.5-2-3.4-2.4 1A8 8 0 0 0 14.8 6L14.5 3h-5L9.2 6a8 8 0 0 0-1.7 1.1l-2.4-1-2 3.4 2 1.5a7 7 0 0 0 0 2l-2 1.5 2 3.4 2.4-1A8 8 0 0 0 9.2 18l.3 3h5l.3-3a8 8 0 0 0 1.7-1.1l2.4 1 2-3.4-2-1.5c.1-.3.1-.7.1-1Z"/></symbol>
  <symbol id="info" viewBox="0 0 24 24"><circle cx="12" cy="12" r="9"/><path d="M12 11v6M12 7h.01"/></symbol>
  <symbol id="refresh" viewBox="0 0 24 24"><path d="M20 6v5h-5"/><path d="M18.5 15a7 7 0 1 1-.3-6.4L20 11"/></symbol>
  <symbol id="check" viewBox="0 0 24 24"><circle cx="12" cy="12" r="9"/><path d="m8 12 2.5 2.5L16 9"/></symbol>
  <symbol id="monitor" viewBox="0 0 24 24"><rect x="3" y="4" width="18" height="13" rx="2"/><path d="M8 21h8M12 17v4"/></symbol>
  <symbol id="cpu" viewBox="0 0 24 24"><rect x="7" y="7" width="10" height="10" rx="2"/><path d="M9 2v5M15 2v5M9 17v5M15 17v5M2 9h5M17 9h5M2 15h5M17 15h5"/></symbol>
  <symbol id="server" viewBox="0 0 24 24"><rect x="4" y="4" width="16" height="6" rx="2"/><rect x="4" y="14" width="16" height="6" rx="2"/><path d="M8 7h.01M8 17h.01M12 7h5M12 17h5"/></symbol>
  <symbol id="globe" viewBox="0 0 24 24"><circle cx="12" cy="12" r="9"/><path d="M3 12h18M12 3a14 14 0 0 1 0 18M12 3a14 14 0 0 0 0 18"/></symbol>
  <symbol id="folder" viewBox="0 0 24 24"><path d="M3 6h7l2 2h9v11H3V6Z"/></symbol>
  <symbol id="copy" viewBox="0 0 24 24"><rect x="8" y="8" width="12" height="12" rx="2"/><path d="M16 8V4H4v12h4"/></symbol>
  <symbol id="users" viewBox="0 0 24 24"><circle cx="9" cy="8" r="3"/><circle cx="17" cy="9" r="2.5"/><path d="M3 20a6 6 0 0 1 12 0M14 15a5 5 0 0 1 7 5"/></symbol>
  <symbol id="chart" viewBox="0 0 24 24"><path d="M5 19V9M10 19V5M15 19v-7M20 19V7"/></symbol>
  <symbol id="send" viewBox="0 0 24 24"><path d="m21 3-8 18-3-7-7-3 18-8Z"/><path d="m10 14 5-5"/></symbol>
  <symbol id="play" viewBox="0 0 24 24"><circle cx="12" cy="12" r="9"/><path d="m10 8 6 4-6 4V8Z"/></symbol>
</svg>
