<svg width="160" height="160" viewBox="0 0 160 160" fill="none" xmlns="http://www.w3.org/2000/svg">
  <defs>
    <linearGradient id="mark" x1="34" y1="24" x2="132" y2="142" gradientUnits="userSpaceOnUse">
      <stop stop-color="#65E765"/>
      <stop offset="0.52" stop-color="#45D98C"/>
      <stop offset="1" stop-color="#27AEDF"/>
    </linearGradient>
    <filter id="shadow" x="-30%" y="-30%" width="160%" height="170%">
      <feDropShadow dx="0" dy="12" stdDeviation="12" flood-color="#2BAEC7" flood-opacity="0.24"/>
    </filter>
  </defs>
  <rect x="14" y="14" width="132" height="132" rx="34" fill="url(#mark)" filter="url(#shadow)"/>
  <rect x="14.75" y="14.75" width="130.5" height="130.5" rx="33.25" stroke="white" stroke-opacity="0.7" stroke-width="1.5"/>
  <path d="M80 44c-20.2 0-34 14.8-34 36.5S59.8 117 80 117c7.4 0 14-2 19.4-5.8l9.6 9.6 9-9-9.5-9.5c3.5-5.8 5.5-13.2 5.5-21.8C114 58.8 100.2 44 80 44Zm0 14c12.3 0 19.5 8.6 19.5 22.5 0 4.1-.7 7.8-2 10.8l-8.8-8.8-9 9 8.8 8.8c-2.5 1.7-5.3 2.7-8.5 2.7-12.3 0-19.5-8.6-19.5-22.5S67.7 58 80 58Z" fill="#09131F"/>
</svg>
