<svg xmlns="http://www.w3.org/2000/svg">
  <symbol id="home" viewBox="0 0 24 24"><path d="m3 11 9-8 9 8"/><path d="M5 10v10h14V10"/><path d="M9 20v-6h6v6"/></symbol>
  <symbol id="quota" viewBox="0 0 24 24"><rect x="4" y="3" width="16" height="18" rx="2"/><path d="M8 7h8M8 11h8M8 15h5"/></symbol>
  <symbol id="provider" viewBox="0 0 24 24"><path d="M8 3v4M16 3v4M5 7h14v3a7 7 0 0 1-14 0V7Z"/><path d="M12 17v4"/></symbol>
  <symbol id="shield" viewBox="0 0 24 24"><path d="M12 3 4.5 6v5.4c0 4.4 3 7.8 7.5 9.6 4.5-1.8 7.5-5.2 7.5-9.6V6L12 3Z"/><path d="m9 12 2 2 4-5"/></symbol>
  <symbol id="bot" viewBox="0 0 24 24"><rect x="4" y="7" width="16" height="13" rx="3"/><path d="M9 12h.01M15 12h.01M8 16h8M12 3v4"/></symbol>
  <symbol id="key" viewBox="0 0 24 24"><circle cx="8" cy="15" r="4"/><path d="m11 12 8-8M16 7l2 2M14 9l2 2"/></symbol>
  <symbol id="log" viewBox="0 0 24 24"><rect x="4" y="4" width="16" height="16" rx="3"/><path d="M8 9h8M8 13h8M8 17h5"/></symbol>
  <symbol id="settings" viewBox="0 0 24 24"><circle cx="12" cy="12" r="3"/><path d="M19 12a7 7 0 0 0-.1-1l2-1.5-2-3.4-2.4 1A8 8 0 0 0 14.8 6L14.5 3h-5L9.2 6a8 8 0 0 0-1.7 1.1l-2.4-1-2 3.4 2 1.5a7 7 0 0 0 0 2l-2 1.5 2 3.4 2.4-1A8 8 0 0 0 9.2 18l.3 3h5l.3-3a8 8 0 0 0 1.7-1.1l2.4 1 2-3.4-2-1.5c.1-.3.1-.7.1-1Z"/></symbol>
  <symbol id="info" viewBox="0 0 24 24"><circle cx="12" cy="12" r="9"/><path d="M12 11v6M12 7h.01"/></symbol>
  <symbol id="folder" viewBox="0 0 24 24"><path d="M3 6h7l2 2h9v11H3V6Z"/></symbol>
  <symbol id="file" viewBox="0 0 24 24"><path d="M6 3h8l4 4v14H6V3Z"/><path d="M14 3v5h5M9 12h6M9 16h6"/></symbol>
  <symbol id="chart" viewBox="0 0 24 24"><path d="M5 19V9M10 19V5M15 19v-7M20 19V7"/></symbol>
  <symbol id="server" viewBox="0 0 24 24"><rect x="4" y="4" width="16" height="6" rx="2"/><rect x="4" y="14" width="16" height="6" rx="2"/><path d="M8 7h.01M8 17h.01M12 7h5M12 17h5"/></symbol>
  <symbol id="globe" viewBox="0 0 24 24"><circle cx="12" cy="12" r="9"/><path d="M3 12h18M12 3a14 14 0 0 1 0 18M12 3a14 14 0 0 0 0 18"/></symbol>
  <symbol id="bell" viewBox="0 0 24 24"><path d="M6 9a6 6 0 0 1 12 0v5l2 3H4l2-3V9Z"/><path d="M10 20h4"/></symbol>
  <symbol id="language" viewBox="0 0 24 24"><path d="M4 5h10M9 3v2M6 9c1.5 3 4 5 7 6M13 8c-1 4-4 7-8 9M15 19l3-8 3 8M16 16h4"/></symbol>
  <symbol id="palette" viewBox="0 0 24 24"><path d="M12 3a9 9 0 1 0 0 18h2a2 2 0 0 0 0-4h-1a2 2 0 0 1 0-4h4a4 4 0 0 0 4-4c0-3.3-4-6-9-6Z"/><circle cx="7.5" cy="10" r="1"/><circle cx="10" cy="6.5" r="1"/><circle cx="15" cy="7" r="1"/></symbol>
  <symbol id="eye" viewBox="0 0 24 24"><path d="M2.5 12s3.5-6 9.5-6 9.5 6 9.5 6-3.5 6-9.5 6-9.5-6-9.5-6Z"/><circle cx="12" cy="12" r="2.5"/></symbol>
  <symbol id="debug" viewBox="0 0 24 24"><rect x="6" y="7" width="12" height="13" rx="5"/><path d="M9 7V4M15 7V4M3 11h3M18 11h3M3 16h3M18 16h3M9 12h.01M15 12h.01M9 16h6"/></symbol>
  <symbol id="route" viewBox="0 0 24 24"><path d="M6 4v6a3 3 0 0 0 3 3h6"/><path d="m13 10 3 3-3 3"/><circle cx="6" cy="4" r="2"/><circle cx="18" cy="13" r="2"/></symbol>
  <symbol id="retry" viewBox="0 0 24 24"><path d="M20 6v5h-5"/><path d="M18.5 15a7 7 0 1 1-.3-6.4L20 11"/></symbol>
  <symbol id="brain" viewBox="0 0 24 24"><path d="M9 4a4 4 0 0 0-4 4c0 .8.2 1.5.6 2.1A4.5 4.5 0 0 0 7 18.8V21h4V5A3 3 0 0 0 9 4ZM15 4a4 4 0 0 1 4 4c0 .8-.2 1.5-.6 2.1A4.5 4.5 0 0 1 17 18.8V21h-4V5a3 3 0 0 1 2-1Z"/><path d="M7 10h4M13 14h4"/></symbol>
  <symbol id="link" viewBox="0 0 24 24"><path d="M10 13a5 5 0 0 0 7.5.5l2-2a5 5 0 0 0-7-7l-1.2 1.2"/><path d="M14 11a5 5 0 0 0-7.5-.5l-2 2a5 5 0 0 0 7 7l1.2-1.2"/></symbol>
  <symbol id="snow" viewBox="0 0 24 24"><path d="M12 2v20M4 7l16 10M4 17 20 7M9 4l3 3 3-3M9 20l3-3 3 3"/></symbol>
  <symbol id="image" viewBox="0 0 24 24"><rect x="3" y="4" width="18" height="16" rx="3"/><circle cx="9" cy="9" r="2"/><path d="m5 18 5-5 3 3 2-2 4 4"/></symbol>
  <symbol id="prefix" viewBox="0 0 24 24"><path d="M5 6h14M5 12h9M5 18h14"/><path d="m17 10 3 2-3 2"/></symbol>
  <symbol id="headers" viewBox="0 0 24 24"><path d="M5 5v14M19 5v14M5 12h14"/></symbol>
  <symbol id="cloud" viewBox="0 0 24 24"><path d="M7 18h11a4 4 0 0 0 .4-8A6 6 0 0 0 7.2 8.2 5 5 0 0 0 7 18Z"/></symbol>
  <symbol id="rocket" viewBox="0 0 24 24"><path d="M14 4c3-2 6-1 6-1s1 3-1 6l-6 6-4-4 5-7Z"/><path d="m9 11-4 1-2 3 5 1M13 15l-1 4-3 2-1-5"/><circle cx="16" cy="7" r="1.5"/></symbol>
  <symbol id="check" viewBox="0 0 24 24"><circle cx="12" cy="12" r="9"/><path d="m8 12 2.5 2.5L16 9"/></symbol>
  <symbol id="play" viewBox="0 0 24 24"><circle cx="12" cy="12" r="9"/><path d="m10 8 6 4-6 4V8Z"/></symbol>
</svg>
