<?xml version="1.0" encoding="UTF-8"?>
<svg xmlns="http://www.w3.org/2000/svg" aria-hidden="true">
  <symbol id="icon-stop" viewBox="0 0 24 24" fill="none" stroke="currentColor" stroke-width="1.9" stroke-linecap="round" stroke-linejoin="round">
    <rect x="6.5" y="6.5" width="11" height="11" rx="2.4" />
  </symbol>
  <symbol id="icon-refresh" viewBox="0 0 24 24" fill="none" stroke="currentColor" stroke-width="1.8" stroke-linecap="round" stroke-linejoin="round">
    <path d="M20 7v5h-5" />
    <path d="M4 17v-5h5" />
    <path d="M6.1 9a7 7 0 0 1 11.7-2.5L20 9" />
    <path d="m4 15 2.2 2.5A7 7 0 0 0 18 15" />
  </symbol>
  <symbol id="icon-open" viewBox="0 0 24 24" fill="none" stroke="currentColor" stroke-width="1.8" stroke-linecap="round" stroke-linejoin="round">
    <path d="M14 4h6v6" />
    <path d="m20 4-9 9" />
    <path d="M10 6H6a2 2 0 0 0-2 2v10a2 2 0 0 0 2 2h10a2 2 0 0 0 2-2v-4" />
  </symbol>
  <symbol id="icon-exit" viewBox="0 0 24 24" fill="none" stroke="currentColor" stroke-width="1.8" stroke-linecap="round" stroke-linejoin="round">
    <path d="M12 3v9" />
    <path d="M7.2 5.6a8 8 0 1 0 9.6 0" />
  </symbol>
  <symbol id="icon-clock" viewBox="0 0 24 24" fill="none" stroke="currentColor" stroke-width="1.8" stroke-linecap="round" stroke-linejoin="round">
    <circle cx="12" cy="12" r="8.5" />
    <path d="M12 7.5V12l3 2" />
  </symbol>
  <symbol id="icon-calendar" viewBox="0 0 24 24" fill="none" stroke="currentColor" stroke-width="1.8" stroke-linecap="round" stroke-linejoin="round">
    <rect x="3.5" y="5.5" width="17" height="15" rx="2.5" />
    <path d="M7.5 3.5v4M16.5 3.5v4M3.5 10h17" />
    <path d="M8 14h.01M12 14h.01M16 14h.01M8 17h.01M12 17h.01" />
  </symbol>
  <symbol id="icon-status" viewBox="0 0 24 24" fill="none" stroke="currentColor" stroke-width="1.8" stroke-linecap="round" stroke-linejoin="round">
    <circle cx="12" cy="12" r="8.5" />
    <path d="m8.2 12.2 2.4 2.4 5.2-5.4" />
  </symbol>
</svg>
