<svg width="200" height="56" viewBox="0 0 200 56" fill="none" xmlns="http://www.w3.org/2000/svg">
  <defs>
    <linearGradient id="area" x1="100" y1="7" x2="100" y2="51" gradientUnits="userSpaceOnUse">
      <stop stop-color="#FF9F1C" stop-opacity="0.24"/>
      <stop offset="1" stop-color="#FF9F1C" stop-opacity="0"/>
    </linearGradient>
  </defs>
  <path d="M4 45C17 42 21 28 35 31c15 3 19 13 34 8 14-5 17-24 31-22 14 2 20 25 34 20 14-5 21-31 34-27 13 4 16 24 28 17V52H4V45Z" fill="url(#area)"/>
  <path d="M4 45C17 42 21 28 35 31c15 3 19 13 34 8 14-5 17-24 31-22 14 2 20 25 34 20 14-5 21-31 34-27 13 4 16 24 28 17" stroke="#FF9F1C" stroke-width="2.5" stroke-linecap="round" stroke-linejoin="round"/>
  <circle cx="168" cy="10" r="4" fill="#FF9F1C" stroke="white" stroke-width="2"/>
</svg>
