<svg xmlns="http://www.w3.org/2000/svg">
  <symbol id="home" viewBox="0 0 24 24"><path d="m3 11 9-8 9 8"/><path d="M5 10v10h14V10"/><path d="M9 20v-6h6v6"/></symbol>
  <symbol id="quota" viewBox="0 0 24 24"><rect x="4" y="3" width="16" height="18" rx="2"/><path d="M8 7h8M8 11h8M8 15h5"/></symbol>
  <symbol id="provider" viewBox="0 0 24 24"><path d="M8 3v4M16 3v4M5 7h14v3a7 7 0 0 1-14 0V7Z"/><path d="M12 17v4"/></symbol>
  <symbol id="shield" viewBox="0 0 24 24"><path d="M12 3 4.5 6v5.4c0 4.4 3 7.8 7.5 9.6 4.5-1.8 7.5-5.2 7.5-9.6V6L12 3Z"/><path d="m9 12 2 2 4-5"/></symbol>
  <symbol id="bot" viewBox="0 0 24 24"><rect x="4" y="7" width="16" height="13" rx="3"/><path d="M9 12h.01M15 12h.01M8 16h8M12 3v4"/></symbol>
  <symbol id="key" viewBox="0 0 24 24"><circle cx="8" cy="15" r="4"/><path d="m11 12 8-8M16 7l2 2M14 9l2 2"/></symbol>
  <symbol id="log" viewBox="0 0 24 24"><rect x="4" y="4" width="16" height="16" rx="3"/><path d="M8 9h8M8 13h8M8 17h5"/></symbol>
  <symbol id="settings" viewBox="0 0 24 24"><circle cx="12" cy="12" r="3"/><path d="M19 12a7 7 0 0 0-.1-1l2-1.5-2-3.4-2.4 1A8 8 0 0 0 14.8 6L14.5 3h-5L9.2 6a8 8 0 0 0-1.7 1.1l-2.4-1-2 3.4 2 1.5a7 7 0 0 0 0 2l-2 1.5 2 3.4 2.4-1A8 8 0 0 0 9.2 18l.3 3h5l.3-3a8 8 0 0 0 1.7-1.1l2.4 1 2-3.4-2-1.5c.1-.3.1-.7.1-1Z"/></symbol>
  <symbol id="info" viewBox="0 0 24 24"><circle cx="12" cy="12" r="9"/><path d="M12 11v6M12 7h.01"/></symbol>
  <symbol id="search" viewBox="0 0 24 24"><circle cx="11" cy="11" r="7"/><path d="m16 16 5 5"/></symbol>
  <symbol id="refresh" viewBox="0 0 24 24"><path d="M20 6v5h-5"/><path d="M18.5 15a7 7 0 1 1-.3-6.4L20 11"/></symbol>
  <symbol id="trash" viewBox="0 0 24 24"><path d="M4 7h16M9 7V4h6v3M7 7l1 14h8l1-14M10 11v6M14 11v6"/></symbol>
  <symbol id="request" viewBox="0 0 24 24"><path d="M5 12h12M13 8l4 4-4 4"/><circle cx="5" cy="12" r="2"/><circle cx="19" cy="12" r="2"/></symbol>
  <symbol id="proxy" viewBox="0 0 24 24"><rect x="4" y="4" width="16" height="6" rx="2"/><rect x="4" y="14" width="16" height="6" rx="2"/><path d="M8 7h.01M8 17h.01M12 7h5M12 17h5"/></symbol>
  <symbol id="activity" viewBox="0 0 24 24"><path d="M3 12h4l2-7 4 14 2-7h6"/></symbol>
  <symbol id="check" viewBox="0 0 24 24"><circle cx="12" cy="12" r="9"/><path d="m8 12 2.5 2.5L16 9"/></symbol>
  <symbol id="clock" viewBox="0 0 24 24"><circle cx="12" cy="12" r="9"/><path d="M12 7v5l3 2"/></symbol>
  <symbol id="layers" viewBox="0 0 24 24"><path d="m12 3 9 5-9 5-9-5 9-5Z"/><path d="m3 12 9 5 9-5M3 16l9 5 9-5"/></symbol>
  <symbol id="filter" viewBox="0 0 24 24"><path d="M4 6h16M7 12h10M10 18h4"/></symbol>
  <symbol id="reset" viewBox="0 0 24 24"><path d="M4 8V4h4"/><path d="M5.5 5.5A8 8 0 1 1 4.4 14"/></symbol>
  <symbol id="chevron" viewBox="0 0 24 24"><path d="m9 7 5 5-5 5"/></symbol>
  <symbol id="more" viewBox="0 0 24 24"><circle cx="5" cy="12" r="1"/><circle cx="12" cy="12" r="1"/><circle cx="19" cy="12" r="1"/></symbol>
  <symbol id="eye" viewBox="0 0 24 24"><path d="M2.5 12s3.5-6 9.5-6 9.5 6 9.5 6-3.5 6-9.5 6-9.5-6-9.5-6Z"/><circle cx="12" cy="12" r="2.5"/></symbol>
  <symbol id="play" viewBox="0 0 24 24"><circle cx="12" cy="12" r="9"/><path d="m10 8 6 4-6 4V8Z"/></symbol>
  <symbol id="file" viewBox="0 0 24 24"><path d="M6 3h8l4 4v14H6V3Z"/><path d="M14 3v5h5M9 12h6M9 16h6"/></symbol>
  <symbol id="alert" viewBox="0 0 24 24"><path d="M12 3 2.8 20h18.4L12 3Z"/><path d="M12 9v5M12 17h.01"/></symbol>
  <symbol id="bug" viewBox="0 0 24 24"><rect x="6" y="7" width="12" height="13" rx="5"/><path d="M9 7V4M15 7V4M3 11h3M18 11h3M3 16h3M18 16h3M9 12h.01M15 12h.01M9 16h6"/></symbol>
  <symbol id="pulse" viewBox="0 0 24 24"><path d="M3 12h4l2-6 4 12 2-6h6"/></symbol>
</svg>
