<svg xmlns="http://www.w3.org/2000/svg" viewBox="0 0 220 220" fill="none" color="#e5bc96">
  <style>path,rect,circle{vector-effect:non-scaling-stroke}</style>
  <g stroke="currentColor" stroke-linecap="round" stroke-linejoin="round">
    <circle cx="110" cy="110" r="82" stroke-width="1" opacity=".28"/>
    <circle cx="110" cy="110" r="76" stroke-width=".65" opacity=".18"/>

    <path d="M46 185C17 161 10 121 24 87c13-31 36-51 69-60M174 185c29-24 36-64 22-98-13-31-36-51-69-60" stroke-width="1.05" opacity=".58"/>
    <path d="M34 160c-13-4-22-13-27-26 14 2 23 9 29 22ZM27 124c-10-8-15-19-13-32 11 6 17 16 17 29ZM35 87c-6-11-6-22 0-33 8 9 10 20 4 31ZM53 58c-2-12 2-23 11-31 5 11 3 21-6 29ZM186 160c13-4 22-13 27-26-14 2-23 9-29 22ZM193 124c10-8 15-19 13-32-11 6-17 16-17 29ZM185 87c6-11 6-22 0-33-8 9-10 20-4 31ZM167 58c2-12-2-23-11-31-5 11-3 21 6 29Z" stroke-width=".85" opacity=".48"/>

    <path d="M48 179c14-15 31-23 52-25M172 179c-14-15-31-23-52-25M50 48c14 4 26 11 36 22M170 48c-14 4-26 11-36 22" stroke-width=".75" opacity=".36"/>
    <path d="M39 185c-8-1-14-5-17-12 8 0 14 3 18 10ZM181 185c8-1 14-5 17-12-8 0-14 3-18 10ZM89 28c5-7 12-11 20-11-4 8-10 13-19 14ZM131 28c-5-7-12-11-20-11 4 8 10 13 19 14Z" stroke-width=".75" opacity=".44"/>

    <path d="M79 192c17 8 45 8 62 0" stroke-width=".9" opacity=".48"/>
    <path d="M91 188c5 7 11 11 19 12 8-1 14-5 19-12" stroke-width=".7" opacity=".36"/>
  </g>
</svg>
