<svg xmlns="http://www.w3.org/2000/svg" style="display:none">
  <symbol id="nav-dashboard" viewBox="0 0 24 24" fill="none" stroke="currentColor" stroke-width="2" stroke-linecap="round" stroke-linejoin="round">
    <rect x="3.5" y="3.5" width="7" height="7" rx="1.6"/>
    <rect x="13.5" y="3.5" width="7" height="7" rx="1.6"/>
    <rect x="3.5" y="13.5" width="7" height="7" rx="1.6"/>
    <rect x="13.5" y="13.5" width="7" height="7" rx="1.6"/>
  </symbol>
  <symbol id="nav-quota" viewBox="0 0 24 24" fill="none" stroke="currentColor" stroke-width="2" stroke-linecap="round" stroke-linejoin="round">
    <path d="m12 3 9 5-9 5-9-5 9-5Z"/>
    <path d="m3 13 9 5 9-5"/>
  </symbol>
  <symbol id="nav-providers" viewBox="0 0 24 24" fill="none" stroke="currentColor" stroke-width="2" stroke-linecap="round" stroke-linejoin="round">
    <rect x="4" y="4" width="16" height="7" rx="2"/>
    <rect x="4" y="13" width="16" height="7" rx="2"/>
    <path d="M7.5 7.5h.01M7.5 16.5h.01"/>
  </symbol>
  <symbol id="nav-2fa" viewBox="0 0 24 24" fill="none" stroke="currentColor" stroke-width="2" stroke-linecap="round" stroke-linejoin="round">
    <path d="M12 3 5 6v5c0 4.4 3 7.4 7 9 4-1.6 7-4.6 7-9V6l-7-3Z"/>
    <path d="m9 11.6 2 2 4-4"/>
  </symbol>
  <symbol id="nav-agents" viewBox="0 0 24 24" fill="none" stroke="currentColor" stroke-width="2" stroke-linecap="round" stroke-linejoin="round">
    <rect x="5" y="8" width="14" height="11" rx="3"/>
    <path d="M12 4.5V8"/>
    <path d="M9.5 13h.01M14.5 13h.01"/>
  </symbol>
  <symbol id="nav-apikeys" viewBox="0 0 24 24" fill="none" stroke="currentColor" stroke-width="2" stroke-linecap="round" stroke-linejoin="round">
    <circle cx="7" cy="12" r="3.3"/>
    <path d="M10.3 12H20m-3.4 0v3m-2.6-3v2.2"/>
  </symbol>
  <symbol id="nav-logs" viewBox="0 0 24 24" fill="none" stroke="currentColor" stroke-width="2" stroke-linecap="round" stroke-linejoin="round">
    <path d="M6 7h12M6 12h12M6 17h8"/>
  </symbol>
  <symbol id="nav-settings" viewBox="0 0 24 24" fill="none" stroke="currentColor" stroke-width="2" stroke-linecap="round" stroke-linejoin="round">
    <circle cx="12" cy="12" r="3"/>
    <path d="M19.4 15a1.65 1.65 0 0 0 .33 1.82l.06.06a2 2 0 1 1-2.83 2.83l-.06-.06a1.65 1.65 0 0 0-1.82-.33 1.65 1.65 0 0 0-1 1.51V21a2 2 0 1 1-4 0v-.09A1.65 1.65 0 0 0 9 19.4a1.65 1.65 0 0 0-1.82.33l-.06.06a2 2 0 1 1-2.83-2.83l.06-.06a1.65 1.65 0 0 0 .33-1.82 1.65 1.65 0 0 0-1.51-1H3a2 2 0 1 1 0-4h.09A1.65 1.65 0 0 0 4.6 9a1.65 1.65 0 0 0-.33-1.82l-.06-.06a2 2 0 1 1 2.83-2.83l.06.06a1.65 1.65 0 0 0 1.82.33H9a1.65 1.65 0 0 0 1-1.51V3a2 2 0 1 1 4 0v.09a1.65 1.65 0 0 0 1 1.51 1.65 1.65 0 0 0 1.82-.33l.06-.06a2 2 0 1 1 2.83 2.83l-.06.06a1.65 1.65 0 0 0-.33 1.82V9a1.65 1.65 0 0 0 1.51 1H21a2 2 0 1 1 0 4h-.09a1.65 1.65 0 0 0-1.51 1Z"/>
  </symbol>
  <symbol id="nav-about" viewBox="0 0 24 24" fill="none" stroke="currentColor" stroke-width="2" stroke-linecap="round" stroke-linejoin="round">
    <circle cx="12" cy="12" r="9"/>
    <path d="M12 16.5v-5M12 8h.01"/>
  </symbol>
</svg>
