<?xml version="1.0" encoding="UTF-8"?>
<svg xmlns="http://www.w3.org/2000/svg" width="360" height="204" viewBox="0 0 360 204" role="img" aria-labelledby="title desc">
  <title id="title">额度状态视觉参考</title>
  <desc id="desc">健康点轨迹，以及健康、预警和危险三种进度条示例。仅用于视觉参考，运行时应使用真实 DOM 与 CSS 数据驱动。</desc>
  <rect width="360" height="204" rx="18" fill="#FFFFFF" />
  <rect x="0.5" y="0.5" width="359" height="203" rx="17.5" fill="none" stroke="#DDE3EB" />
  <text x="20" y="28" fill="#1F2937" font-family="Inter, Segoe UI, sans-serif" font-size="13" font-weight="700">健康点轨迹</text>
  <g transform="translate(20 42)">
    <g fill="#35B96B">
      <circle cx="3.5" cy="3.5" r="3.5" /><circle cx="14.5" cy="3.5" r="3.5" /><circle cx="25.5" cy="3.5" r="3.5" /><circle cx="36.5" cy="3.5" r="3.5" />
      <circle cx="47.5" cy="3.5" r="3.5" /><circle cx="58.5" cy="3.5" r="3.5" /><circle cx="69.5" cy="3.5" r="3.5" /><circle cx="80.5" cy="3.5" r="3.5" />
      <circle cx="91.5" cy="3.5" r="3.5" /><circle cx="102.5" cy="3.5" r="3.5" /><circle cx="113.5" cy="3.5" r="3.5" /><circle cx="124.5" cy="3.5" r="3.5" />
      <circle cx="135.5" cy="3.5" r="3.5" /><circle cx="146.5" cy="3.5" r="3.5" /><circle cx="157.5" cy="3.5" r="3.5" /><circle cx="168.5" cy="3.5" r="3.5" />
    </g>
    <g fill="#D7DEE8">
      <circle cx="179.5" cy="3.5" r="3.5" /><circle cx="190.5" cy="3.5" r="3.5" /><circle cx="201.5" cy="3.5" r="3.5" /><circle cx="212.5" cy="3.5" r="3.5" />
      <circle cx="223.5" cy="3.5" r="3.5" /><circle cx="234.5" cy="3.5" r="3.5" /><circle cx="245.5" cy="3.5" r="3.5" /><circle cx="256.5" cy="3.5" r="3.5" />
    </g>
  </g>
  <g font-family="Inter, Segoe UI, sans-serif" font-size="11">
    <text x="20" y="78" fill="#667085">健康</text><text x="340" y="78" fill="#1F2937" text-anchor="end" font-weight="700">91%</text>
    <rect x="20" y="86" width="320" height="7" rx="3.5" fill="#E9EDF3" /><rect x="20" y="86" width="291" height="7" rx="3.5" fill="#35B96B" />
    <text x="20" y="116" fill="#667085">预警</text><text x="340" y="116" fill="#1F2937" text-anchor="end" font-weight="700">55%</text>
    <rect x="20" y="124" width="320" height="7" rx="3.5" fill="#E9EDF3" /><rect x="20" y="124" width="176" height="7" rx="3.5" fill="#F59E0B" />
    <text x="20" y="154" fill="#667085">危险</text><text x="340" y="154" fill="#1F2937" text-anchor="end" font-weight="700">18%</text>
    <rect x="20" y="162" width="320" height="7" rx="3.5" fill="#E9EDF3" /><rect x="20" y="162" width="58" height="7" rx="3.5" fill="#EF4444" />
    <text x="20" y="190" fill="#98A2B3" font-size="10">仅视觉参考 · 运行时请使用 DOM / CSS 与真实数据</text>
  </g>
</svg>
