<svg xmlns="http://www.w3.org/2000/svg" width="64" height="64" viewBox="0 0 64 64" fill="none" color="#e5bc96">
  <style>path,rect,circle{vector-effect:non-scaling-stroke}</style>
  <g stroke="currentColor" stroke-linecap="round" stroke-linejoin="round">
    <rect x="1" y="1" width="62" height="62" rx="10" stroke-width=".9" opacity=".3"/>

    <!-- Decorative hooks stay inside 20px corner slices. -->
    <path d="M2 18V9q0-7 7-7h9M6 17c7-1 11-5 12-11-1-4-4-5-7-4-3 1-3 5 0 6" stroke-width=".78" opacity=".48"/>
    <path d="M62 18V9q0-7-7-7h-9M58 17c-7-1-11-5-12-11 1-4 4-5 7-4 3 1 3 5 0 6" stroke-width=".78" opacity=".48"/>
    <path d="M2 46v9q0 7 7 7h9M6 47c7 1 11 5 12 11-1 4-4 5-7 4-3-1-3-5 0-6" stroke-width=".78" opacity=".48"/>
    <path d="M62 46v9q0 7-7 7h-9M58 47c-7 1-11 5-12 11 1 4 4 5 7 4 3-1 3-5 0-6" stroke-width=".78" opacity=".48"/>
  </g>
</svg>
