<svg xmlns="http://www.w3.org/2000/svg" viewBox="0 0 40 64" fill="none" color="#e5bc96">
  <style>path,rect,circle{vector-effect:non-scaling-stroke}</style>
  <g stroke="currentColor" stroke-linecap="round" stroke-linejoin="round">
    <path d="M38 1H22Q7 1 7 16v8Q7 32 1 32q6 0 6 8v8q0 15 15 15h16" stroke-width="1.15" opacity=".6"/>
    <path d="M34 7H24Q14 7 14 17v7q0 8-6 8 6 0 6 8v7q0 10 10 10h10" stroke-width=".7" opacity=".32"/>
    <path d="M9 24c7-1 11-5 13-11 1-5-2-8-6-8-4 0-6 3-5 6 1 3 4 4 6 2M9 40c7 1 11 5 13 11 1 5-2 8-6 8-4 0-6-3-5-6 1-3 4-4 6-2" stroke-width=".72" opacity=".43"/>
  </g>
</svg>
