<svg xmlns="http://www.w3.org/2000/svg" viewBox="0 0 64 64" fill="none">
  <g stroke="currentColor" stroke-width="3" stroke-linecap="round" stroke-linejoin="round">
    <path d="M32 8c5 0 9 3 11 7 5-1 10 2 12 6 2 5 0 10-4 13 2 5 0 11-4 14-4 3-9 3-13 1-4 3-10 3-14 0-4-3-6-8-4-13-4-3-6-8-4-13 2-5 7-8 12-7 2-5 6-8 8-8Z"/>
    <path d="M24 22c5-5 13-5 17 0 4 5 2 12-3 16-5 4-12 3-16-2-4-5-2-11 2-14Z"/>
    <path d="M27 25c4-3 9-2 11 2 2 4 0 8-4 10-4 1-8-1-9-5-1-3 0-5 2-7Z"/>
    <path d="M31 27c3-1 6 1 6 4 0 3-2 5-5 5-3 0-5-2-5-5 0-2 2-4 4-4Z"/>
    <path d="M31 9c-1 5 0 9 3 12M48 17c-5 1-8 4-10 8M53 34c-5-2-10-1-14 2M46 49c-3-4-7-6-12-6M19 49c3-4 7-6 12-6M11 35c5-2 10-1 14 2M15 19c5 1 8 4 10 8" opacity=".72"/>
  </g>
</svg>
